<svg viewBox="0 0 548 106.75" width="548" height="106.75" fill="none" xmlns="http://www.w3.org/2000/svg"><g transform="translate(0.0000, 0.0000) scale(1.186111)">
<path d="M41.6918 47.5343C46.5418 50.3395 48.9668 51.7393 51.6315 51.7422C54.2957 51.7422 56.7207 50.3461 61.5741 47.5534L92.4523 29.7771C93.8484 28.9748 94.7094 27.4851 94.7094 25.8742C94.7094 24.2633 93.8484 22.7737 92.4523 21.9713L61.5645 4.1859C56.7145 1.39323 54.2895 0 51.6315 0C48.9702 0 46.5451 1.39945 41.7013 4.19523L15.1564 19.499C14.9419 19.6234 14.8331 19.6856 14.7336 19.7478C5.67704 25.0657 0.0839432 34.7529 0 45.2579V46.2348C0.0808341 56.7276 5.66461 66.4055 14.7056 71.7296L15.1315 71.9784L31.7274 81.5755C41.4399 87.1887 46.2964 89.9971 51.6315 90C56.9632 90 61.8228 87.1982 71.5382 81.588L89.0792 71.4589C93.9355 68.6571 96.3634 67.2543 97.6974 64.9435C99.031 62.6359 99.0314 59.8308 99.0314 54.2206V43.3547C99.028 41.8246 98.2135 40.4098 96.889 39.6448C95.5646 38.8798 93.9322 38.8766 92.6048 39.6386L56.5901 60.3724C54.168 61.7656 52.9588 62.4618 51.6281 62.4618C50.3008 62.4618 49.0912 61.7685 46.6691 60.3753L22.3009 46.3654C21.0759 45.6626 20.4666 45.3077 19.9723 45.2455C18.853 45.1024 17.7773 45.7277 17.3514 46.7726C17.1648 47.2329 17.1679 47.939 17.1773 49.3538C17.1804 50.3896 17.1835 50.9088 17.283 51.3877C17.5006 52.4546 18.0602 53.4216 18.8779 54.1368C19.2447 54.4603 19.6956 54.7182 20.5941 55.2377L46.6537 70.302C49.0817 71.7077 50.2975 72.4072 51.6281 72.4072C52.965 72.4072 54.1775 71.7077 56.6059 70.3053L88.5478 51.8637C89.3777 51.3848 89.7914 51.148 90.1023 51.3255C90.4132 51.5059 90.4128 51.9848 90.4128 52.9426V57.8658C90.4128 59.2681 90.4132 59.9677 90.0803 60.5461C89.7479 61.1245 89.1414 61.4733 87.926 62.1761L61.5865 77.383C56.7269 80.1881 54.299 81.5909 51.6315 81.588C48.9639 81.588 46.5327 80.1819 41.6793 77.3739L17.0436 63.1215L16.8695 63.0216C11.7085 59.9959 8.528 54.476 8.4938 48.4926V43.7652C8.4938 40.4596 10.2504 37.4057 13.1076 35.745C15.6383 34.2771 18.7597 34.274 21.2905 35.7388L41.6951 47.5314L41.6918 47.5343ZM165.349 69.0863C160.055 69.0863 155.488 68.116 151.654 66.1783C147.821 64.1975 144.87 61.4604 142.803 57.9682C140.782 54.4383 139.768 50.3892 139.768 45.821C139.768 41.2992 140.801 37.2906 142.868 33.8013C144.936 30.2685 147.886 27.5131 151.719 25.529C155.553 23.548 160.117 22.5591 165.415 22.5591C170.24 22.5591 174.306 23.2681 177.627 24.6894C180.984 26.1137 183.546 28.0511 185.312 30.5048C187.122 32.9181 188.135 35.6548 188.35 38.7149H178.983C178.83 37.7384 178.5 36.7961 178.012 35.9347C177.54 34.9426 176.784 34.0377 175.752 33.2198C174.76 32.4019 173.449 31.7332 171.81 31.217C170.218 30.7008 168.259 30.4395 165.934 30.4395H164.899C161.668 30.4395 158.827 31.046 156.371 32.2526C154.02 33.4001 152.064 35.2225 150.749 37.4865C149.413 39.7692 148.747 42.5461 148.747 45.821C148.747 49.0553 149.416 51.8322 150.749 54.1555C152.099 56.4133 154.073 58.2323 156.436 59.3925C158.892 60.5992 161.712 61.2025 164.899 61.2025H165.931C169.077 61.2025 171.726 60.792 173.877 59.9739C176.032 59.1126 177.67 58.0586 178.789 56.8084C179.909 55.5583 180.469 54.3296 180.469 53.123V52.6068H165.607V44.723H182.859C184.84 44.723 186.348 45.2612 187.38 46.3402C188.455 47.4162 188.996 48.9462 188.996 50.9274V68.439H180.469V63.401C179.909 64.132 178.982 64.9501 177.689 65.8549C176.442 66.7165 174.804 67.472 172.78 68.1156C170.756 68.7624 168.278 69.0863 165.349 69.0863ZM195.92 68.439V23.2059H204.837V68.439H195.92ZM227.539 68.439V31.0895H209.32V23.2059H254.671V31.0895H236.452V68.439H227.539ZM259.142 68.439V23.2059H284.853C287.568 23.2059 289.999 23.7004 292.153 24.6894C294.308 25.6379 296.008 26.9969 297.258 28.7633C298.505 30.5266 299.13 32.66 299.13 35.1603C299.13 37.7415 298.421 39.9185 296.997 41.6849C295.576 43.4513 293.897 44.7015 291.961 45.4354C293.509 45.7775 294.908 46.4243 296.158 47.3726C297.407 48.3214 298.396 49.528 299.13 50.9925C299.864 52.4542 300.228 54.1804 300.228 56.1616C300.228 58.6586 299.562 60.8355 298.225 62.689C296.935 64.499 295.191 65.92 292.993 66.9525C290.798 67.9447 288.342 68.439 285.628 68.439H259.142ZM268.056 60.5556H284.337C286.489 60.5556 288.17 60.0581 289.374 59.0691C290.624 58.0366 291.249 56.6558 291.249 54.933C291.249 53.0795 290.627 51.7016 289.374 50.7968C288.17 49.895 286.489 49.4409 284.337 49.4409H268.056V60.5556ZM268.056 41.5542H283.883C285.867 41.5542 287.396 41.1033 288.472 40.1983C289.591 39.2965 290.151 37.9375 290.151 36.1275C290.151 34.6223 289.591 33.4157 288.472 32.5107C287.394 31.5622 285.867 31.0895 283.883 31.0895H268.058L268.056 41.5542ZM329.707 69.0863C324.841 69.0863 320.47 68.1591 316.593 66.3056C312.716 64.4086 309.66 61.7407 307.421 58.295C305.183 54.8057 304.061 50.6446 304.061 45.8243C304.061 40.9976 305.18 36.8614 307.418 33.4157C309.657 29.9264 312.716 27.255 316.593 25.4015C320.47 23.5045 324.841 22.5591 329.707 22.5591C334.619 22.5591 338.99 23.5076 342.824 25.4015C346.698 27.255 349.735 29.9264 351.93 33.4157C354.172 36.8614 355.291 40.9976 355.291 45.8243C355.291 50.6446 354.172 54.8057 351.93 58.295C349.735 61.7407 346.698 64.4119 342.824 66.3056C338.99 68.1591 334.619 69.0863 329.707 69.0863ZM329.191 61.2025H330.226C333.155 61.2025 335.822 60.5992 338.235 59.3925C340.644 58.2294 342.678 56.4166 344.114 54.1588C345.578 51.8326 346.312 49.0524 346.312 45.8243C346.312 42.5465 345.578 39.7692 344.114 37.4865C342.678 35.2287 340.644 33.4157 338.235 32.2526C335.822 31.046 333.155 30.4426 330.226 30.4426H329.191C326.306 30.4426 323.635 31.046 321.179 32.2526C318.76 33.4281 316.708 35.235 315.237 37.4865C313.773 39.7692 313.04 42.5461 313.04 45.821C313.04 49.0553 313.773 51.8322 315.237 54.1555C316.708 56.4071 318.76 58.217 321.179 59.3925C323.635 60.5992 326.306 61.2025 329.191 61.2025ZM384.282 69.0863C379.417 69.0863 375.043 68.1591 371.169 66.3056C367.292 64.4086 364.232 61.7407 361.994 58.295C359.755 54.8057 358.636 50.6446 358.636 45.8243C358.636 40.9976 359.755 36.8614 361.994 33.4157C364.232 29.9264 367.292 27.255 371.169 25.4015C375.043 23.5045 379.417 22.5591 384.282 22.5591C389.192 22.5591 393.563 23.5076 397.396 25.4015C401.273 27.255 404.308 29.9264 406.506 33.4157C408.744 36.8614 409.863 40.9976 409.863 45.8243C409.863 50.6446 408.744 54.8057 406.506 58.295C404.308 61.7407 401.273 64.4119 397.396 66.3056C393.563 68.1591 389.192 69.0863 384.282 69.0863ZM383.766 61.2025H384.798C387.727 61.2025 390.398 60.5992 392.81 59.3925C395.217 58.2261 397.253 56.4166 398.689 54.1588C400.154 51.8326 400.884 49.0524 400.884 45.8243C400.884 42.5465 400.154 39.7692 398.689 37.4865C397.253 35.2287 395.217 33.4188 392.81 32.2526C390.398 31.046 387.727 30.4426 384.798 30.4426H383.766C380.881 30.4426 378.211 31.046 375.754 32.2526C373.336 33.425 371.28 35.235 369.81 37.4865C368.345 39.7692 367.615 42.5461 367.615 45.821C367.615 49.0553 368.345 51.8322 369.81 54.1555C371.28 56.4071 373.336 58.217 375.754 59.3925C378.211 60.5992 380.881 61.2025 383.766 61.2025ZM423.156 54.9981L420.574 46.8564L448.223 23.2059H460.564L423.156 54.9981ZM415.989 68.439V23.2059H424.902V68.439H415.989ZM449.84 68.439L429.424 45.9516L437.176 41.6227L461.596 68.439H449.84Z" fill="#262930"/>
</g></svg>