<svg viewBox="0 0 548 154.13" width="548" height="154.13" fill="none" xmlns="http://www.w3.org/2000/svg"><g transform="translate(0.0000, 0.0000) scale(1.712556)">
<path d="M89.2493 0.0251947V90L54.4248 59.8324V90H0V0L89.2493 0.0251947ZM10.9401 79.0762H43.4846V35.8621L78.3098 66.6264V10.9457L10.9401 10.9264V79.0762Z" fill="#37C38F"/>
<path d="M161.124 73.0315L126.476 42.4125V72.431H115.578V18.5479L150.226 49.1668V19.1482H161.124V73.0315ZM173.122 72.431V19.1482H205.741V29.8798H184.02V40.3863H201.231V50.8927H184.02V61.6995H205.741V72.431H173.122ZM239.48 73.0315C224.372 73.0315 212.196 60.8739 212.196 45.7897C212.196 30.7053 224.372 18.5479 239.48 18.5479C254.586 18.5479 266.762 30.7053 266.762 45.7897C266.762 60.8739 254.586 73.0315 239.48 73.0315ZM239.48 62.525C248.799 62.525 255.788 55.0202 255.788 45.7897C255.788 36.559 248.799 29.0542 239.48 29.0542C230.159 29.0542 223.17 36.559 223.17 45.7897C223.17 55.0202 230.159 62.525 239.48 62.525ZM319.727 73.0315L285.078 42.4125V72.431H274.18V18.5479L308.829 49.1668V19.1482H319.727V73.0315Z" fill="black"/>
</g></svg>