<svg xmlns="http://www.w3.org/2000/svg" xmlns:xlink="http://www.w3.org/1999/xlink" width="1200" height="356" viewBox="0 0 1200 356">
  <defs>
    <linearGradient id="headerGrad" x1="0%" y1="0%" x2="100%" y2="100%">
      <stop offset="0%" style="stop-color:#f6f8fa;stop-opacity:1" />
      <stop offset="100%" style="stop-color:#ffffff;stop-opacity:1" />
    </linearGradient>
  </defs>
  <style>
    .bg { fill: #ffffff; }
    .header-bg { fill: url(#headerGrad); }
    .table-header-bg { fill: #f6f8fa; }
    .table-header { font: 600 12px 'Inter', 'SF Pro Display', -apple-system, BlinkMacSystemFont, 'Segoe UI', Roboto, Helvetica, Arial, sans-serif; fill: #57606a; text-transform: uppercase; letter-spacing: 0.5px; }
    .row { font: 14px 'Inter', 'SF Pro Display', -apple-system, BlinkMacSystemFont, 'Segoe UI', Roboto, Helvetica, Arial, sans-serif; fill: #24292f; }
    .rank { font-weight: 700; fill: #57606a; }
    .rank-1 { fill: #d4a000; }
    .rank-2 { fill: #8a8a8a; }
    .rank-3 { fill: #a0522d; }
    .provider { font-weight: 600; fill: #0969da; }
    .median { font-weight: 700; font-size: 15px; }
    .fast { fill: #1a7f37; }
    .medium { fill: #9a6700; }
    .slow { fill: #cf222e; }
    .status { fill: #57606a; }
    .divider { stroke: #d0d7de; stroke-width: 1; }
    .border { stroke: #d0d7de; stroke-width: 1; fill: none; }
    .timestamp { font: 11px 'Inter', 'SF Pro Display', -apple-system, BlinkMacSystemFont, 'Segoe UI', Roboto, Helvetica, Arial, sans-serif; fill: #57606a; }
    .title { font: bold 28px 'Inter', 'SF Pro Display', -apple-system, BlinkMacSystemFont, 'Segoe UI', Roboto, Helvetica, Arial, sans-serif; fill: #24292f; }
    .subtitle { font: 14px 'Inter', 'SF Pro Display', -apple-system, BlinkMacSystemFont, 'Segoe UI', Roboto, Helvetica, Arial, sans-serif; fill: #57606a; }
    .logo { fill: #24292f; }
    .metrics-label { font: 600 12px 'Inter', 'SF Pro Display', -apple-system, BlinkMacSystemFont, 'Segoe UI', Roboto, Helvetica, Arial, sans-serif; fill: #57606a; text-transform: uppercase; letter-spacing: 0.5px; }
    .metrics-row { font: 13px 'Inter', 'SF Pro Display', -apple-system, BlinkMacSystemFont, 'Segoe UI', Roboto, Helvetica, Arial, sans-serif; fill: #24292f; }
  </style>

  <!-- Background -->
  <rect class="bg" width="1200" height="356"/>

  <!-- Logo (black square with white C) -->
  <g transform="translate(24, 24)">
    <rect width="60" height="60" fill="#000000"/>
    <g transform="scale(0.035) translate(0, 0)">
      <path fill="#ffffff" d="M1036.26,1002.28h237.87l-.93,19.09c-8.38,110.32-49.81,198.3-123.82,262.07-73.09,63.31-170.84,95.43-290.48,95.43-130.81,0-235.55-44.69-311.43-133.6-74.48-87.98-112.65-209.48-112.65-361.23v-60.51c0-96.83,17.7-183.41,51.68-257.43,34.91-74.95,85.19-133.61,149.89-173.63,64.7-40.04,140.12-60.52,225.3-60.52,117.77,0,214.13,32.12,286.29,95.9,72.62,63.3,114.98,153.61,126.15,267.67l1.86,19.08h-238.34l-.93-15.83c-4.65-59.11-20.95-101.94-47.95-127.08-27-25.6-69.83-38.17-127.08-38.17-61.91,0-107.06,20.95-137.33,65.17-31.65,45.15-47.94,117.77-48.87,215.53v74.48c0,102.41,15.36,177.83,45.62,223.91,28.86,44.22,74.01,65.63,137.79,65.63,58.19,0,101.48-12.57,128.95-38.17,26.99-25.14,43.29-66.1,47.48-121.5l.93-16.3Z"/>
    </g>
  </g>

  <!-- Title -->
  <text class="title" x="100" y="55">Burst Concurrency Benchmarks</text>
  <text class="subtitle" x="100" y="78">Sandbox TTI under simultaneous burst load</text>
  <!-- Table header background -->
  <rect class="table-header-bg" y="134" width="1200" height="44"/>

  <!-- Table header text -->
  <text class="table-header" x="40" y="162">#</text>
  <text class="table-header" x="80" y="162">Provider</text>
  <text class="table-header" x="280" y="162">Score</text>
  <text class="table-header" x="420" y="162">Median TTI</text>
  <text class="table-header" x="600" y="162">P95</text>
  <text class="table-header" x="780" y="162">P99</text>
  <text class="table-header" x="960" y="162">Status</text>

  <!-- Row 1 -->
  <text class="rank rank-1" x="40" y="208">1</text>
  <text class="row provider" x="80" y="208">Createos</text>
  <text class="row median" x="280" y="208">94.3</text>
  <text class="row median fast" x="420" y="208">0.53s</text>
  <text class="row" x="600" y="208">0.62s</text>
  <text class="row" x="780" y="208">0.65s</text>
  <text class="row status" x="960" y="208">100/100</text>

  <text class="metrics-label" x="24" y="242">BURST METRICS</text>
  <text class="metrics-row" x="34" y="262">Createos: 100 sandboxes | Wall clock: 0.97s | First ready: 0.37s</text>

  <!-- Timestamp -->
  <text class="timestamp" x="1176" y="328" text-anchor="end">Last updated: Jul 16, 2026, 08:22 AM UTC</text>

  <!-- Footnote -->
  <text class="timestamp" x="24" y="342">Burst mode: 100 sandboxes launched simultaneously</text>

</svg>