<svg xmlns="http://www.w3.org/2000/svg" xmlns:xlink="http://www.w3.org/1999/xlink" width="1200" height="1508" viewBox="0 0 1200 1508">
  <defs>
    <linearGradient id="headerGrad" x1="0%" y1="0%" x2="100%" y2="100%">
      <stop offset="0%" style="stop-color:#f6f8fa;stop-opacity:1" />
      <stop offset="100%" style="stop-color:#ffffff;stop-opacity:1" />
    </linearGradient>
  </defs>
  <style>
    .bg { fill: #ffffff; }
    .header-bg { fill: url(#headerGrad); }
    .table-header-bg { fill: #f6f8fa; }
    .table-header { font: 600 12px 'Inter', 'SF Pro Display', -apple-system, BlinkMacSystemFont, 'Segoe UI', Roboto, Helvetica, Arial, sans-serif; fill: #57606a; text-transform: uppercase; letter-spacing: 0.5px; }
    .row { font: 14px 'Inter', 'SF Pro Display', -apple-system, BlinkMacSystemFont, 'Segoe UI', Roboto, Helvetica, Arial, sans-serif; fill: #24292f; }
    .rank { font-weight: 700; fill: #57606a; }
    .rank-1 { fill: #d4a000; }
    .rank-2 { fill: #8a8a8a; }
    .rank-3 { fill: #a0522d; }
    .provider { font-weight: 600; fill: #0969da; }
    .median { font-weight: 700; font-size: 15px; }
    .fast { fill: #1a7f37; }
    .medium { fill: #9a6700; }
    .slow { fill: #cf222e; }
    .status { fill: #57606a; }
    .divider { stroke: #d0d7de; stroke-width: 1; }
    .border { stroke: #d0d7de; stroke-width: 1; fill: none; }
    .timestamp { font: 11px 'Inter', 'SF Pro Display', -apple-system, BlinkMacSystemFont, 'Segoe UI', Roboto, Helvetica, Arial, sans-serif; fill: #57606a; }
    .title { font: bold 28px 'Inter', 'SF Pro Display', -apple-system, BlinkMacSystemFont, 'Segoe UI', Roboto, Helvetica, Arial, sans-serif; fill: #24292f; }
    .subtitle { font: 14px 'Inter', 'SF Pro Display', -apple-system, BlinkMacSystemFont, 'Segoe UI', Roboto, Helvetica, Arial, sans-serif; fill: #57606a; }
    .logo { fill: #24292f; }
    .metrics-label { font: 600 12px 'Inter', 'SF Pro Display', -apple-system, BlinkMacSystemFont, 'Segoe UI', Roboto, Helvetica, Arial, sans-serif; fill: #57606a; text-transform: uppercase; letter-spacing: 0.5px; }
    .metrics-row { font: 13px 'Inter', 'SF Pro Display', -apple-system, BlinkMacSystemFont, 'Segoe UI', Roboto, Helvetica, Arial, sans-serif; fill: #24292f; }
  </style>

  <!-- Background -->
  <rect class="bg" width="1200" height="1508"/>

  <!-- Logo (black square with white C) -->
  <g transform="translate(24, 24)">
    <rect width="60" height="60" fill="#000000"/>
    <g transform="scale(0.035) translate(0, 0)">
      <path fill="#ffffff" d="M1036.26,1002.28h237.87l-.93,19.09c-8.38,110.32-49.81,198.3-123.82,262.07-73.09,63.31-170.84,95.43-290.48,95.43-130.81,0-235.55-44.69-311.43-133.6-74.48-87.98-112.65-209.48-112.65-361.23v-60.51c0-96.83,17.7-183.41,51.68-257.43,34.91-74.95,85.19-133.61,149.89-173.63,64.7-40.04,140.12-60.52,225.3-60.52,117.77,0,214.13,32.12,286.29,95.9,72.62,63.3,114.98,153.61,126.15,267.67l1.86,19.08h-238.34l-.93-15.83c-4.65-59.11-20.95-101.94-47.95-127.08-27-25.6-69.83-38.17-127.08-38.17-61.91,0-107.06,20.95-137.33,65.17-31.65,45.15-47.94,117.77-48.87,215.53v74.48c0,102.41,15.36,177.83,45.62,223.91,28.86,44.22,74.01,65.63,137.79,65.63,58.19,0,101.48-12.57,128.95-38.17,26.99-25.14,43.29-66.1,47.48-121.5l.93-16.3Z"/>
    </g>
  </g>

  <!-- Title -->
  <text class="title" x="100" y="55">Staggered Concurrency Benchmarks</text>
  <text class="subtitle" x="100" y="78">Sandbox TTI under gradually increasing concurrent load</text>
  <!-- Table header background -->
  <rect class="table-header-bg" y="134" width="1200" height="44"/>

  <!-- Table header text -->
  <text class="table-header" x="40" y="162">#</text>
  <text class="table-header" x="80" y="162">Provider</text>
  <text class="table-header" x="280" y="162">Score</text>
  <text class="table-header" x="420" y="162">Median TTI</text>
  <text class="table-header" x="600" y="162">P95</text>
  <text class="table-header" x="780" y="162">P99</text>
  <text class="table-header" x="960" y="162">Status</text>

  <!-- Row 1 -->
  <text class="rank rank-1" x="40" y="208">1</text>
  <text class="row provider" x="80" y="208">Isorun</text>
  <text class="row median" x="280" y="208">99.9</text>
  <text class="row median fast" x="420" y="208">0.01s</text>
  <text class="row" x="600" y="208">0.02s</text>
  <text class="row" x="780" y="208">0.02s</text>
  <text class="row status" x="960" y="208">100/100</text>
  <line class="divider" x1="24" y1="222" x2="1176" y2="222"/>

  <!-- Row 2 -->
  <text class="rank rank-2" x="40" y="252">2</text>
  <text class="row provider" x="80" y="252">Declaw</text>
  <text class="row median" x="280" y="252">99.2</text>
  <text class="row median fast" x="420" y="252">0.07s</text>
  <text class="row" x="600" y="252">0.10s</text>
  <text class="row" x="780" y="252">0.11s</text>
  <text class="row status" x="960" y="252">100/100</text>
  <line class="divider" x1="24" y1="266" x2="1176" y2="266"/>

  <!-- Row 3 -->
  <text class="rank rank-3" x="40" y="296">3</text>
  <text class="row provider" x="80" y="296">Northflank</text>
  <text class="row median" x="280" y="296">99.1</text>
  <text class="row median fast" x="420" y="296">0.08s</text>
  <text class="row" x="600" y="296">0.10s</text>
  <text class="row" x="780" y="296">0.10s</text>
  <text class="row status" x="960" y="296">100/100</text>
  <line class="divider" x1="24" y1="310" x2="1176" y2="310"/>

  <!-- Row 4 -->
  <text class="rank" x="40" y="340">4</text>
  <text class="row provider" x="80" y="340">Archil</text>
  <text class="row median" x="280" y="340">97.6</text>
  <text class="row median fast" x="420" y="340">0.18s</text>
  <text class="row" x="600" y="340">0.31s</text>
  <text class="row" x="780" y="340">0.35s</text>
  <text class="row status" x="960" y="340">100/100</text>
  <line class="divider" x1="24" y1="354" x2="1176" y2="354"/>

  <!-- Row 5 -->
  <text class="rank" x="40" y="384">5</text>
  <text class="row provider" x="80" y="384">Daytona</text>
  <text class="row median" x="280" y="384">97.1</text>
  <text class="row median fast" x="420" y="384">0.18s</text>
  <text class="row" x="600" y="384">0.43s</text>
  <text class="row" x="780" y="384">0.52s</text>
  <text class="row status" x="960" y="384">100/100</text>
  <line class="divider" x1="24" y1="398" x2="1176" y2="398"/>

  <!-- Row 6 -->
  <text class="rank" x="40" y="428">6</text>
  <text class="row provider" x="80" y="428">Upstash</text>
  <text class="row median" x="280" y="428">96.7</text>
  <text class="row median fast" x="420" y="428">0.28s</text>
  <text class="row" x="600" y="428">0.40s</text>
  <text class="row" x="780" y="428">0.44s</text>
  <text class="row status" x="960" y="428">100/100</text>
  <line class="divider" x1="24" y1="442" x2="1176" y2="442"/>

  <!-- Row 7 -->
  <text class="rank" x="40" y="472">7</text>
  <text class="row provider" x="80" y="472">Beam</text>
  <text class="row median" x="280" y="472">96.0</text>
  <text class="row median fast" x="420" y="472">0.37s</text>
  <text class="row" x="600" y="472">0.43s</text>
  <text class="row" x="780" y="472">0.43s</text>
  <text class="row status" x="960" y="472">100/100</text>
  <line class="divider" x1="24" y1="486" x2="1176" y2="486"/>

  <!-- Row 8 -->
  <text class="rank" x="40" y="516">8</text>
  <text class="row provider" x="80" y="516">Vercel</text>
  <text class="row median" x="280" y="516">95.8</text>
  <text class="row median fast" x="420" y="516">0.34s</text>
  <text class="row" x="600" y="516">0.51s</text>
  <text class="row" x="780" y="516">0.58s</text>
  <text class="row status" x="960" y="516">100/100</text>
  <line class="divider" x1="24" y1="530" x2="1176" y2="530"/>

  <!-- Row 9 -->
  <text class="rank" x="40" y="560">9</text>
  <text class="row provider" x="80" y="560">E2B</text>
  <text class="row median" x="280" y="560">95.7</text>
  <text class="row median fast" x="420" y="560">0.35s</text>
  <text class="row" x="600" y="560">0.52s</text>
  <text class="row" x="780" y="560">0.60s</text>
  <text class="row status" x="960" y="560">100/100</text>
  <line class="divider" x1="24" y1="574" x2="1176" y2="574"/>

  <!-- Row 10 -->
  <text class="rank" x="40" y="604">10</text>
  <text class="row provider" x="80" y="604">Cloud-run</text>
  <text class="row median" x="280" y="604">95.4</text>
  <text class="row median fast" x="420" y="604">0.44s</text>
  <text class="row" x="600" y="604">0.48s</text>
  <text class="row" x="780" y="604">0.49s</text>
  <text class="row status" x="960" y="604">100/100</text>
  <line class="divider" x1="24" y1="618" x2="1176" y2="618"/>

  <!-- Row 11 -->
  <text class="rank" x="40" y="648">11</text>
  <text class="row provider" x="80" y="648">Modal</text>
  <text class="row median" x="280" y="648">95.2</text>
  <text class="row median fast" x="420" y="648">0.46s</text>
  <text class="row" x="600" y="648">0.49s</text>
  <text class="row" x="780" y="648">0.53s</text>
  <text class="row status" x="960" y="648">100/100</text>
  <line class="divider" x1="24" y1="662" x2="1176" y2="662"/>

  <!-- Row 12 -->
  <text class="rank" x="40" y="692">12</text>
  <text class="row provider" x="80" y="692">Blaxel</text>
  <text class="row median" x="280" y="692">94.8</text>
  <text class="row median fast" x="420" y="692">0.46s</text>
  <text class="row" x="600" y="692">0.60s</text>
  <text class="row" x="780" y="692">0.66s</text>
  <text class="row status" x="960" y="692">100/100</text>
  <line class="divider" x1="24" y1="706" x2="1176" y2="706"/>

  <!-- Row 13 -->
  <text class="rank" x="40" y="736">13</text>
  <text class="row provider" x="80" y="736">Createos</text>
  <text class="row median" x="280" y="736">93.5</text>
  <text class="row median fast" x="420" y="736">0.56s</text>
  <text class="row" x="600" y="736">0.79s</text>
  <text class="row" x="780" y="736">0.80s</text>
  <text class="row status" x="960" y="736">100/100</text>
  <line class="divider" x1="24" y1="750" x2="1176" y2="750"/>

  <!-- Row 14 -->
  <text class="rank" x="40" y="780">14</text>
  <text class="row provider" x="80" y="780">Tensorlake</text>
  <text class="row median" x="280" y="780">93.1</text>
  <text class="row median fast" x="420" y="780">0.66s</text>
  <text class="row" x="600" y="780">0.73s</text>
  <text class="row" x="780" y="780">0.74s</text>
  <text class="row status" x="960" y="780">100/100</text>
  <line class="divider" x1="24" y1="794" x2="1176" y2="794"/>

  <!-- Row 15 -->
  <text class="rank" x="40" y="824">15</text>
  <text class="row provider" x="80" y="824">Runloop</text>
  <text class="row median" x="280" y="824">90.6</text>
  <text class="row median fast" x="420" y="824">0.80s</text>
  <text class="row" x="600" y="824">1.02s</text>
  <text class="row" x="780" y="824">1.36s</text>
  <text class="row status" x="960" y="824">100/100</text>
  <line class="divider" x1="24" y1="838" x2="1176" y2="838"/>

  <!-- Row 16 -->
  <text class="rank" x="40" y="868">16</text>
  <text class="row provider" x="80" y="868">Superserve</text>
  <text class="row median" x="280" y="868">88.3</text>
  <text class="row median medium" x="420" y="868">1.12s</text>
  <text class="row" x="600" y="868">1.21s</text>
  <text class="row" x="780" y="868">1.28s</text>
  <text class="row status" x="960" y="868">100/100</text>
  <line class="divider" x1="24" y1="882" x2="1176" y2="882"/>

  <!-- Row 17 -->
  <text class="rank" x="40" y="912">17</text>
  <text class="row provider" x="80" y="912">Codesandbox</text>
  <text class="row median" x="280" y="912">73.3</text>
  <text class="row median slow" x="420" y="912">2.41s</text>
  <text class="row" x="600" y="912">2.84s</text>
  <text class="row" x="780" y="912">2.91s</text>
  <text class="row status" x="960" y="912">99/100</text>
  <line class="divider" x1="24" y1="926" x2="1176" y2="926"/>

  <!-- Row 18 -->
  <text class="rank" x="40" y="956">18</text>
  <text class="row provider" x="80" y="956">Cloudflare</text>
  <text class="row median" x="280" y="956">54.0</text>
  <text class="row median slow" x="420" y="956">3.90s</text>
  <text class="row" x="600" y="956">5.56s</text>
  <text class="row" x="780" y="956">5.77s</text>
  <text class="row status" x="960" y="956">100/100</text>
  <line class="divider" x1="24" y1="970" x2="1176" y2="970"/>

  <!-- Row 19 -->
  <text class="rank" x="40" y="1000">19</text>
  <text class="row provider" x="80" y="1000">Hopx</text>
  <text class="row median" x="280" y="1000">0.0</text>
  <text class="row median slow" x="420" y="1000">16.24s</text>
  <text class="row" x="600" y="1000">18.47s</text>
  <text class="row" x="780" y="1000">19.35s</text>
  <text class="row status" x="960" y="1000">33/100</text>

  <text class="metrics-label" x="24" y="1034">STAGGERED METRICS</text>
  <text class="metrics-row" x="34" y="1054">Isorun: 100 sandboxes (200ms apart) | Wall clock: 19.87s | First ready: 0.01s</text>
  <text class="metrics-row" x="34" y="1074">Declaw: 100 sandboxes (200ms apart) | Wall clock: 20.11s | First ready: 0.05s</text>
  <text class="metrics-row" x="34" y="1094">Northflank: 100 sandboxes (200ms apart) | Wall clock: 20.02s | First ready: 0.06s</text>
  <text class="metrics-row" x="34" y="1114">Archil: 100 sandboxes (200ms apart) | Wall clock: 20.13s | First ready: 0.13s</text>
  <text class="metrics-row" x="34" y="1134">Daytona: 100 sandboxes (200ms apart) | Wall clock: 20.19s | First ready: 0.11s</text>
  <text class="metrics-row" x="34" y="1154">Upstash: 100 sandboxes (200ms apart) | Wall clock: 20.60s | First ready: 0.23s</text>
  <text class="metrics-row" x="34" y="1174">Beam: 100 sandboxes (200ms apart) | Wall clock: 20.42s | First ready: 0.20s</text>
  <text class="metrics-row" x="34" y="1194">Vercel: 100 sandboxes (200ms apart) | Wall clock: 20.45s | First ready: 0.25s</text>
  <text class="metrics-row" x="34" y="1214">E2B: 100 sandboxes (200ms apart) | Wall clock: 37.26s | First ready: 0.29s</text>
  <text class="metrics-row" x="34" y="1234">Cloud-run: 100 sandboxes (200ms apart) | Wall clock: 20.75s | First ready: 0.40s</text>
  <text class="metrics-row" x="34" y="1254">Modal: 100 sandboxes (200ms apart) | Wall clock: 20.36s | First ready: 0.41s</text>
  <text class="metrics-row" x="34" y="1274">Blaxel: 100 sandboxes (200ms apart) | Wall clock: 20.61s | First ready: 0.39s</text>
  <text class="metrics-row" x="34" y="1294">Createos: 100 sandboxes (200ms apart) | Wall clock: 20.66s | First ready: 0.47s</text>
  <text class="metrics-row" x="34" y="1314">Tensorlake: 100 sandboxes (200ms apart) | Wall clock: 20.47s | First ready: 0.45s</text>
  <text class="metrics-row" x="34" y="1334">Runloop: 100 sandboxes (200ms apart) | Wall clock: 21.51s | First ready: 0.65s</text>
  <text class="metrics-row" x="34" y="1354">Superserve: 100 sandboxes (200ms apart) | Wall clock: 21.39s | First ready: 0.90s</text>
  <text class="metrics-row" x="34" y="1374">Codesandbox: 100 sandboxes (200ms apart) | Wall clock: 30.06s | First ready: 1.98s</text>
  <text class="metrics-row" x="34" y="1394">Cloudflare: 100 sandboxes (200ms apart) | Wall clock: 27.86s | First ready: 1.10s</text>
  <text class="metrics-row" x="34" y="1414">Hopx: 100 sandboxes (200ms apart) | Wall clock: 44.48s | First ready: 8.36s</text>

  <!-- Timestamp -->
  <text class="timestamp" x="1176" y="1480" text-anchor="end">Last updated: Jul 8, 2026, 10:05 AM CDT</text>

  <!-- Footnote -->
  <text class="timestamp" x="24" y="1494">Staggered mode: 100 sandboxes, 200ms between launches</text>

</svg>